<svg width="236" height="100" viewBox="0 0 236 100" fill="none" xmlns="http://www.w3.org/2000/svg">
<g clip-path="url(#clip0_5901_1691)">
<path d="M0 71.3032H2.31349V84.6943C2.31349 86.2595 2.31349 87.3029 2.49145 87.6508C2.66941 88.5203 2.84738 89.2159 3.2033 89.9116C3.55922 90.4333 4.27106 90.955 5.16087 91.4768C6.05067 91.8246 6.94048 91.9985 7.83028 91.9985C8.54213 91.9985 9.25397 91.8246 9.96581 91.4768C10.6777 91.129 11.2115 90.7811 11.7454 90.0855C12.2793 89.5638 12.6352 88.8681 12.8132 87.9986C12.9912 87.4768 12.9912 86.2595 12.9912 84.5204V71.3032H15.3046V84.6943C15.3046 86.6073 15.1267 88.3464 14.7708 89.5638C14.4148 90.7811 13.525 91.8246 12.2793 92.6941C11.0336 93.5637 9.60989 94.0854 7.83028 94.0854C6.05067 94.0854 4.44902 93.7376 3.02534 92.8681C1.77961 91.9985 0.889805 90.955 0.355922 89.3899C0.177961 88.5203 0 86.9551 0 84.6943L0 71.3032ZM20.4655 93.5637H22.601V87.4768C22.601 85.3899 22.779 83.8247 22.957 82.9552C23.3129 81.7378 24.0247 80.6944 25.0925 79.8248C26.1603 78.9553 27.406 78.6074 28.6517 78.6074C29.8974 78.6074 30.7873 78.9553 31.4991 79.477C32.2109 79.9987 32.7448 80.8683 32.9228 81.9117C33.1007 82.6074 33.1007 83.8247 33.1007 85.7377V93.5637H35.2363V85.0421C35.2363 82.7813 35.0583 81.2161 34.5244 79.9987C33.9905 78.9553 33.2787 78.0857 32.3889 77.3901C31.3211 76.6944 30.2534 76.5205 29.0076 76.5205C27.7619 76.5205 26.5162 76.8683 25.4484 77.3901C24.3807 77.9118 23.4908 78.7814 22.601 79.9987V77.0422H20.4655V93.5637ZM40.7531 70.2598C40.2192 70.2598 39.8633 70.4337 39.5073 70.7815C39.1514 71.1293 38.9735 71.4771 38.9735 71.9989C38.9735 72.5206 39.1514 72.8684 39.5073 73.2162C39.8633 73.564 40.2192 73.738 40.7531 73.738C41.2869 73.738 41.6429 73.564 41.9988 73.2162C42.3547 72.8684 42.5327 72.5206 42.5327 71.9989C42.5327 71.4771 42.3547 71.1293 41.9988 70.7815C41.8208 70.4337 41.2869 70.2598 40.7531 70.2598ZM39.6853 93.5637H41.8208V77.0422H39.6853V93.5637ZM48.4054 77.0422H45.3801V78.9553H48.4054V93.5637H50.5409V78.9553H54.1001V77.0422H50.5409V70.9554H48.4054V77.0422ZM58.0153 70.2598C57.4814 70.2598 57.1255 70.4337 56.7696 70.7815C56.4136 71.1293 56.2357 71.4771 56.2357 71.9989C56.2357 72.5206 56.4136 72.8684 56.7696 73.2162C57.1255 73.564 57.4814 73.738 58.0153 73.738C58.5492 73.738 58.9051 73.564 59.261 73.2162C59.6169 72.8684 59.7949 72.5206 59.7949 71.9989C59.7949 71.4771 59.6169 71.1293 59.261 70.7815C58.9051 70.4337 58.5492 70.2598 58.0153 70.2598ZM56.9475 93.5637H59.083V77.0422H56.9475V93.5637ZM63.71 93.5637H65.8456V87.4768C65.8456 85.3899 66.0235 83.8247 66.2015 82.9552C66.5574 81.7378 67.2693 80.6944 68.337 79.8248C69.4048 78.9553 70.6505 78.6074 71.8962 78.6074C73.142 78.6074 74.0318 78.9553 74.7436 79.477C75.4555 79.9987 75.9893 80.8683 76.1673 81.9117C76.3453 82.6074 76.3453 83.8247 76.3453 85.7377V93.5637H78.4808V85.0421C78.4808 82.7813 78.3028 81.2161 77.769 79.9987C77.2351 78.9553 76.5232 78.0857 75.6334 77.3901C74.5657 76.6944 73.4979 76.5205 72.2522 76.5205C71.0064 76.5205 69.7607 76.8683 68.6929 77.3901C67.6252 77.9118 66.7354 78.7814 65.8456 79.9987V77.0422H63.71V93.5637ZM97.8785 79.9987C96.8108 78.7814 95.743 77.9118 94.6752 77.3901C93.6075 76.8683 92.3617 76.6944 91.116 76.6944C89.5144 76.6944 88.0907 77.0422 86.667 77.9118C85.2433 78.6074 84.1755 79.6509 83.4637 81.0422C82.7519 82.4335 82.218 83.8247 82.218 85.3899C82.218 86.9551 82.5739 88.3464 83.2857 89.5638C83.9976 90.7811 85.0653 91.8246 86.489 92.5202C87.9127 93.2159 89.3364 93.7376 90.9381 93.7376C92.3617 93.7376 93.6075 93.3898 94.6752 92.8681C96.0989 92.1724 97.1667 91.4768 97.8785 90.4333V91.3029C97.8785 93.042 97.7006 94.4332 97.1667 95.3028C96.8108 96.1723 95.921 96.868 95.0312 97.3897C93.9634 97.9114 92.7177 98.2593 91.294 98.2593C89.6923 98.2593 88.4466 97.9114 87.5568 97.3897C86.489 96.868 85.7772 95.9984 85.0653 94.955H82.7519C83.2857 96.1723 83.9976 97.2158 84.7094 97.9114C85.4213 98.6071 86.3111 99.1288 87.5568 99.4766C88.8025 99.8245 90.0483 99.9984 91.4719 99.9984C93.4295 99.9984 95.2091 99.6505 96.6328 98.781C98.0565 97.9114 99.1243 96.868 99.6581 95.3028C100.014 94.2593 100.37 92.5202 100.37 90.2594V77.0422H97.8785V79.9987ZM91.4719 78.7813C92.7177 78.7813 93.7854 79.1292 94.8532 79.6509C95.921 80.1726 96.6328 81.0422 97.1667 81.9117C97.7006 82.9552 98.0565 83.9986 98.0565 85.216C98.0565 87.129 97.5226 88.6942 96.2769 89.9116C95.0312 91.129 93.4295 91.6507 91.4719 91.6507C89.5144 91.6507 87.9127 91.129 86.667 89.9116C85.4213 88.6942 84.7094 87.3029 84.7094 85.3899C84.7094 84.1726 85.0653 83.1291 85.5992 82.0856C86.1331 81.0422 87.0229 80.1726 88.0907 79.6509C89.1584 78.9553 90.2262 78.7813 91.4719 78.7813Z" fill="black"/>
<path d="M123.507 71.303L134.184 93.5635H131.693L128.134 86.2592H118.168L114.609 93.5635H112.117L122.795 71.303H123.507ZM123.151 75.9986L119.236 84.1723H127.066L123.151 75.9986ZM151.625 77.042H153.76V90.2592C153.76 92.52 153.582 94.2591 153.048 95.3026C152.514 96.8677 151.447 97.9112 150.023 98.7808C148.599 99.6503 146.82 99.9981 144.862 99.9981C143.438 99.9981 142.015 99.8242 140.947 99.4764C139.701 99.1286 138.811 98.6068 138.099 97.9112C137.388 97.2156 136.676 96.1721 136.142 94.9547H138.455C139.167 95.9982 139.879 96.8678 140.947 97.3895C142.015 97.9112 143.26 98.259 144.684 98.259C146.108 98.259 147.353 97.9112 148.421 97.3895C149.489 96.8678 150.201 96.1721 150.557 95.3026C150.913 94.433 151.269 93.2156 151.269 91.3026V90.4331C150.379 91.4765 149.489 92.1722 148.243 92.6939C146.998 93.2156 145.752 93.5635 144.506 93.5635C142.904 93.5635 141.481 93.2156 140.057 92.3461C138.633 91.6504 137.566 90.607 136.854 89.3896C136.142 88.1723 135.786 86.781 135.786 85.2158C135.786 83.6506 136.142 82.2593 137.032 80.868C137.744 79.4767 138.811 78.4333 140.235 77.7377C141.659 77.042 143.082 76.5203 144.684 76.5203C145.93 76.5203 147.176 76.6942 148.243 77.2159C149.311 77.7377 150.379 78.6072 151.447 79.8246V77.042H151.625ZM145.218 78.7811C143.972 78.7811 142.904 79.1289 141.837 79.6507C140.769 80.1724 139.879 81.0419 139.345 82.0854C138.811 83.1289 138.455 84.1723 138.455 85.3897C138.455 87.1288 139.167 88.694 140.413 89.9114C141.659 91.1287 143.26 91.6505 145.218 91.6505C147.175 91.6505 148.777 91.1287 150.023 89.9114C151.269 88.694 151.802 87.1288 151.802 85.2158C151.802 83.9984 151.447 82.781 150.913 81.9115C150.379 80.868 149.489 80.1724 148.599 79.6507C147.531 78.955 146.464 78.7811 145.218 78.7811ZM172.802 88.1723L174.581 89.0418C174.048 90.2592 173.336 91.1287 172.446 91.8244C171.734 92.52 170.844 93.0417 169.777 93.3896C168.709 93.7374 167.641 93.9113 166.395 93.9113C163.548 93.9113 161.412 93.0417 159.811 91.3026C158.209 89.5635 157.497 87.4766 157.497 85.3897C157.497 83.3028 158.209 81.3898 159.455 79.8246C161.056 77.7377 163.37 76.6942 166.217 76.6942C169.065 76.6942 171.378 77.7377 173.158 79.8246C174.404 81.3898 174.937 83.1289 175.115 85.3897H159.811C159.811 87.3027 160.523 88.8679 161.768 90.0853C163.014 91.3026 164.438 91.9983 166.217 91.9983C167.107 91.9983 167.997 91.8244 168.709 91.4765C169.599 91.1287 170.31 90.7809 170.844 90.2592C171.556 89.9114 172.268 89.2157 172.802 88.1723ZM172.802 83.6506C172.446 82.4332 172.09 81.5637 171.556 80.868C171.022 80.1724 170.31 79.6507 169.421 79.3028C168.531 78.955 167.463 78.6072 166.573 78.6072C164.972 78.6072 163.548 79.1289 162.302 80.1724C161.412 80.868 160.701 82.0854 160.345 83.6506H172.802ZM183.124 93.5635H183.48L190.42 76.6942L197.183 93.5635H197.538L204.123 71.303H201.81L197.005 87.3027L190.42 71.303H189.886L183.302 87.3027L178.675 71.303H176.361L183.124 93.5635ZM220.673 88.1723L222.453 89.0418C221.919 90.2592 221.207 91.1287 220.317 91.8244C219.606 92.52 218.716 93.0417 217.648 93.3896C216.58 93.7374 215.513 93.9113 214.267 93.9113C211.419 93.9113 209.284 93.0417 207.682 91.3026C206.081 89.5635 205.369 87.4766 205.369 85.3897C205.369 83.3028 206.081 81.3898 207.326 79.8246C208.928 77.7377 211.241 76.6942 214.089 76.6942C216.936 76.6942 219.25 77.7377 221.029 79.8246C222.275 81.3898 222.809 83.1289 222.987 85.3897H207.682C207.682 87.3027 208.394 88.8679 209.64 90.0853C210.886 91.3026 212.309 91.9983 214.089 91.9983C214.979 91.9983 215.868 91.8244 216.58 91.4765C217.47 91.1287 218.182 90.7809 218.716 90.2592C219.428 89.9114 219.962 89.2157 220.673 88.1723ZM220.673 83.6506C220.317 82.4332 219.962 81.5637 219.428 80.868C218.894 80.1724 218.182 79.6507 217.292 79.3028C216.402 78.955 215.335 78.6072 214.445 78.6072C212.843 78.6072 211.419 79.1289 210.174 80.1724C209.284 80.868 208.572 82.0854 208.216 83.6506H220.673ZM226.902 93.5635H229.038V70.7812H226.902V93.5635ZM233.665 93.5635H235.8V70.7812H233.665V93.5635Z" fill="#5E56A5"/>
<path d="M7.29688 7.99986C7.29688 3.65211 11.0341 0 15.661 0H65.1342C69.7612 0 73.3204 3.65211 73.3204 7.99986V55.999C73.3204 60.3468 69.5832 63.9989 65.1342 63.9989H15.661C11.0341 63.9989 7.47484 60.3468 7.47484 55.999V7.99986H7.29688Z" fill="#B7B6DB"/>
<path d="M84.8906 7.99986C84.8906 3.65211 88.6278 0 93.0768 0H142.55C147.177 0 150.736 3.65211 150.736 7.99986V55.999C150.736 60.3468 146.999 63.9989 142.55 63.9989H93.0768C88.4498 63.9989 84.8906 60.3468 84.8906 55.999V7.99986Z" fill="#8D88C2"/>
<path d="M162.477 7.99986C162.477 3.65211 166.214 0 170.663 0H220.136C224.763 0 228.322 3.65211 228.322 7.99986V55.999C228.322 60.3468 224.585 63.9989 220.136 63.9989H170.663C166.036 63.9989 162.477 60.3468 162.477 55.999V7.99986Z" fill="#5E56A5"/>
<path d="M212.483 46.7822C211.415 46.6083 210.169 46.2605 209.102 46.0866C201.805 44.6953 195.221 42.2605 189.526 37.3911C185.433 33.9129 182.407 29.9129 180.272 25.2174C179.738 24 179.026 22.7826 178.136 21.5653C177.424 20.5218 176.357 19.4783 174.933 19.6522C173.509 19.8262 172.264 20.0001 170.84 20.3479C173.153 21.9131 174.221 24 175.111 26.2608C175.645 27.4782 176.001 28.8695 176.357 30.0868C178.314 36.1737 182.585 40.3475 188.28 43.4779C192.907 45.9126 198.068 46.6083 203.229 47.13C206.076 47.3039 208.924 47.3039 211.771 47.13C211.949 47.13 212.305 47.13 212.483 46.7822ZM184.365 28.6956C184.365 28.6956 184.187 28.8695 184.187 29.0434C191.483 38.0867 201.449 43.1301 212.839 46.0866C211.415 44.8692 209.991 43.8257 208.746 42.2605C207.322 40.3475 206.254 38.4345 206.254 35.9998C206.254 33.9129 206.966 31.9999 208.034 30.2608C209.635 27.4782 211.593 25.0435 214.44 23.3044C215.686 22.4348 217.11 21.9131 218.533 21.0435C216.398 20.5218 214.44 20.3479 212.483 20.6957C209.28 21.2174 206.432 22.6087 203.585 24.1739C200.737 25.5652 198.068 27.3043 195.043 28.6956C192.195 30.0868 189.348 30.4347 186.323 29.5651C185.789 29.2173 185.077 29.0434 184.365 28.6956ZM169.238 20.0001C171.196 19.6522 172.798 18.9566 174.577 18.6088C176.713 18.261 178.136 19.1305 179.382 20.8696C180.094 22.087 180.984 23.1304 181.518 24.3478C183.653 27.9999 187.924 28.6956 191.483 27.6521C194.687 26.7826 197.356 25.0435 200.203 23.6522C203.585 21.9131 206.966 19.8262 210.881 19.3044C214.44 18.7827 218 19.3044 221.381 20.6957C221.559 20.6957 221.737 20.6957 221.737 21.0435C221.737 21.2174 221.381 21.2174 221.203 21.3913C219.067 22.4348 216.932 23.3044 214.974 24.6956C211.237 27.1304 208.924 30.6086 208.034 34.7824C207.5 36.8693 208.212 38.7823 209.457 40.5214C210.881 42.9562 213.017 44.8692 215.33 46.4344C215.508 46.6083 215.864 46.6083 215.864 47.13C214.44 47.3039 213.195 47.6517 211.771 47.8257C209.102 47.9996 206.432 48.3474 203.585 48.1735C198.068 47.9996 192.907 47.13 187.924 44.8692C185.789 43.8257 183.831 42.4345 181.874 40.8693C177.958 37.7389 176.179 33.3911 174.755 28.8695C174.043 26.6086 173.509 24.1739 171.908 22.087C171.196 21.3913 170.128 20.8696 169.238 20.0001Z" fill="white"/>
</g>
<defs>
<clipPath id="clip0_5901_1691">
<rect width="235.798" height="99.9982" fill="white"/>
</clipPath>
</defs>
</svg>
